<?xml version="1.0" standalone="no"?>
<!DOCTYPE svg PUBLIC "-//W3C//DTD SVG 20010904//EN"
 "http://www.w3.org/TR/2001/REC-SVG-20010904/DTD/svg10.dtd">
<svg version="1.0" xmlns="http://www.w3.org/2000/svg"
 width="128.000000pt" height="128.000000pt" viewBox="0 0 128.000000 128.000000"
 preserveAspectRatio="xMidYMid meet">
<metadata>
Created by potrace 1.14, written by Peter Selinger 2001-2017
</metadata>
<g transform="translate(0.000000,128.000000) scale(0.100000,-0.100000)"
fill="#000000" stroke="none">
<path d="M407 1139 c-32 -3 -66 -14 -76 -23 -9 -9 -23 -16 -29 -16 -7 0 -12
-5 -12 -11 0 -5 -4 -7 -10 -4 -6 4 -10 -8 -10 -29 0 -20 0 -39 -1 -43 0 -4 4
-9 10 -11 6 -2 11 3 11 12 0 9 6 16 13 16 7 0 25 12 42 28 59 55 93 70 140 60
24 -5 65 -8 91 -6 l48 3 -28 18 c-27 18 -28 18 -41 1 -11 -16 -15 -16 -30 -4
-20 17 -43 18 -118 9z"/>
<path d="M707 1113 l-26 -27 -19 24 c-17 21 -19 21 -25 6 -5 -13 2 -21 28 -32
19 -7 43 -14 54 -14 11 0 23 -5 26 -10 11 -18 76 -40 116 -40 35 0 39 -3 39
-25 0 -17 -9 -29 -28 -39 -16 -8 -36 -32 -47 -55 -18 -42 -29 -49 -41 -30 -4
7 -10 7 -16 1 -6 -6 -51 -8 -107 -5 -87 3 -98 2 -119 -17 -25 -24 -28 -36 -8
-47 8 -4 16 -17 18 -28 4 -22 32 -25 98 -12 45 9 69 -5 51 -27 -11 -13 -11
-16 3 -16 9 0 16 7 16 16 0 13 8 15 52 9 29 -4 60 -12 69 -18 16 -10 16 -13
-1 -47 -10 -20 -38 -54 -62 -75 -24 -21 -54 -54 -66 -74 l-24 -36 6 43 c8 53
-3 49 -40 -14 -24 -41 -30 -45 -55 -40 -19 4 -38 -2 -64 -19 -39 -27 -65 -31
-82 -14 -12 12 -33 4 -33 -11 0 -5 53 -7 123 -4 100 3 126 1 142 -11 18 -14
19 -16 4 -28 -10 -7 -24 -36 -32 -65 -10 -31 -27 -62 -43 -76 -26 -22 -29 -22
-57 -7 -23 12 -31 13 -34 4 -3 -7 -20 -13 -38 -13 -23 0 -39 -7 -49 -21 -13
-19 -17 -20 -43 -7 -36 17 -65 76 -68 138 l-2 49 42 12 c33 10 41 17 38 30 -6
20 -37 34 -54 24 -5 -4 -15 -19 -21 -33 -12 -30 -7 -36 -49 63 -16 40 -22 47
-30 33 -17 -30 16 -176 61 -263 22 -44 40 -88 40 -97 0 -9 5 -20 10 -23 6 -3
10 -15 10 -25 0 -20 53 -70 75 -70 8 0 18 -7 22 -15 8 -13 49 -22 138 -29 43
-4 225 39 275 64 l43 22 -6 77 c-10 133 27 252 115 364 27 34 29 42 23 90 -3
28 -11 66 -16 83 -8 26 -14 30 -34 26 -20 -3 -24 -1 -19 12 3 9 10 16 15 16
23 0 0 177 -32 249 -16 37 -33 54 -85 86 -83 51 -138 57 -177 18z m313 -509
c0 -8 4 -13 9 -9 15 9 23 -13 11 -34 -7 -13 -20 -19 -40 -19 -24 1 -30 5 -30
24 0 18 4 21 21 17 18 -5 20 -3 14 16 -4 12 -2 21 4 21 6 0 11 -7 11 -16z"/>
<path d="M364 847 c-83 -30 -101 -45 -109 -91 l-6 -38 38 5 c113 16 180 38
168 57 -2 4 4 16 15 28 20 21 20 21 -7 41 -30 25 -23 25 -99 -2z"/>
<path d="M476 615 c-11 -8 -26 -15 -34 -15 -7 0 -19 -6 -26 -13 -17 -16 0 -42
40 -63 29 -15 99 -20 75 -5 -11 7 -10 11 4 19 10 5 26 7 37 4 18 -4 57 28 77
66 8 15 1 17 -73 19 -60 2 -86 -1 -100 -12z"/>
<path d="M568 408 c-50 -29 -56 -54 -12 -55 35 -1 43 5 62 50 15 34 2 35 -50
5z"/>
<path d="M488 393 c-10 -2 -18 -9 -18 -14 0 -6 8 -5 20 1 11 6 20 13 20 15 0
3 -1 4 -2 4 -2 -1 -11 -3 -20 -6z"/>
</g>
</svg>
